# xmcd
#
# Track frame offsets: 
#        182
#        13207
#        23707
#        36532
#        48632
#        60320
#        72095
#        84270
#        96570
#        107845
#        118607
#        130082
#        141607
#        155120
#        166232
#        177207
#
# Disc length: 2537 seconds
#
# Revision: 4
# Processed by: cddbd v1.5PL3 Copyright (c) Steve Scherf et al.
# Submitted via: ExactAudioCopy v0.95a5
#
DISCID=e209e710
DTITLE=Ray Charles - Gold Collection [CD 2)
DYEAR=1900
DGENRE=Blues
TTITLE0=Baby Won't You Please Come Home
TTITLE1=The Ego Song
TTITLE2=You Always Miss The Water
TTITLE3=I Live Only For You
TTITLE4=What Have I Done
TTITLE5=See See Rider
TTITLE6=I've Had My Fun
TTITLE7=Honey Honey
TTITLE8=Here Am I
TTITLE9=I Wonder Who's Kissing Her Now
TTITLE10=She's On The Ball
TTITLE11=If I Give You My Love
TTITLE12=I'm Going Down The River
TTITLE13=Let's Have A Ball
TTITLE14=A Sentimental Blues
TTITLE15=I Used To Be So Happy
EXTD=ID3G: 0
EXTT0=
EXTT1=
EXTT2=
EXTT3=
EXTT4=
EXTT5=
EXTT6=
EXTT7=
EXTT8=
EXTT9=
EXTT10=
EXTT11=
EXTT12=
EXTT13=
EXTT14=
EXTT15=
PLAYORDER=
